<svg id="Layer_1" data-name="Layer 1" xmlns="http://www.w3.org/2000/svg" viewBox="0 0 1920 432.67"><defs><style>.cls-1{fill:#fff;}</style></defs><title>Pareto_Lockup</title><path class="cls-1" d="M222.7,286.35v30.72L37.48,230.44V204L222.7,117.34v30.73L70.34,217.21Z"/><path class="cls-1" d="M325.11,73.39c28.59,0,52.49,3.41,71.7,20.06,20.91,17.92,26,43.1,26,61,0,40.12-25.17,79.81-90,79.81H305.05V358H273.47V73.39Zm-20.06,131h26c37.56,0,60.18-18.78,60.18-51.64,0-45.24-42.26-49.51-62.74-49.51H305.05Z"/><path class="cls-1" d="M768.82,73.39c19.21,0,47.8,1.28,69.14,15.79,16.65,11.1,31.16,32.86,31.16,63.16,0,43.53-28.6,75.54-71.7,78.52L887.89,358H849.48L762.85,233.43h-8.11V358H723.16V73.39ZM754.74,205.26H774.8c39.26,0,62.73-18.78,62.73-52.06,0-15.79-4.69-31.59-22.62-41.83-12.8-7.26-27.31-8.11-41-8.11H754.74Z"/><path class="cls-1" d="M1096.91,103.26H980.82v84.5h112.67v29.88H980.82V328.17h116.09V358H949.24V73.39h147.67Z"/><path class="cls-1" d="M1260.51,103.26V358h-31.58V103.26h-69.14V73.39h169.85v29.87Z"/><path class="cls-1" d="M1697.3,148.07V117.34L1882.52,204v26.46L1697.3,317.07V286.35l152.36-69.14Z"/><path class="cls-1" d="M1517.9,362.36c74.74-7.51,132.15-67.46,132.15-146.43,0-35.49-11.58-67-31-91.69Z"/><path class="cls-1" d="M1597.46,102.19C1571.7,81,1538.4,68.69,1502,68.69c-81.94,0-148.09,62.31-148.09,147.24,0,78,56,137.44,129.47,146.1Z"/><polygon class="cls-1" points="477.43 358.04 671.21 358.04 573.98 130.75 477.43 358.04"/><polygon class="cls-1" points="558.33 94.16 543.6 59.73 412.58 358.04 442.43 358.04 558.33 94.16"/></svg>