<svg id="Layer_1" data-name="Layer 1" xmlns="http://www.w3.org/2000/svg" viewBox="0 0 1920 1920"><defs><style>.cls-1{fill:#e85025;}</style></defs><title>Pareto_EBU</title><path class="cls-1" d="M1205.65,872.74c0-257.81-240.78-282.12-357.51-282.12H714.39V1167H862.75C1076.75,1167,1205.65,1060,1205.65,872.74Z"/><path class="cls-1" d="M960,120.93C493,120.93,116.07,476,116.07,960c0,321.74,167.33,587.92,418.32,729.27V420.36H828.67c163,0,299.14,19.46,408.58,114.32,119.2,102.15,148.36,245.64,148.36,347.79,0,228.61-143.48,454.78-513.17,454.78H714.39v427.43A885.44,885.44,0,0,0,960,1799.07c469.36,0,843.93-357.52,843.93-839C1803.93,476,1426.92,120.93,960,120.93Z"/></svg>